<mxfile host="app.diagrams.net" agent="Mozilla/5.0 (Macintosh; Intel Mac OS X 10_15_7) AppleWebKit/537.36 (KHTML, like Gecko) Chrome/136.0.0.0 Safari/537.36" version="27.0.6">
  <diagram name="페이지-1" id="u4aw6kbIkRFoEZ9t1VFv">
    <mxGraphModel dx="1473" dy="688" grid="1" gridSize="10" guides="1" tooltips="1" connect="1" arrows="1" fold="1" page="0" pageScale="1" pageWidth="827" pageHeight="1169" math="0" shadow="0">
      <root>
        <mxCell id="0" />
        <mxCell id="1" parent="0" />
        <mxCell id="qRrsi4mGmzIIHp8oxD2m-111" value="" style="endArrow=none;html=1;rounded=0;entryX=0.626;entryY=0;entryDx=0;entryDy=0;entryPerimeter=0;exitX=0.5;exitY=1;exitDx=0;exitDy=0;" edge="1" parent="1">
          <mxGeometry width="50" height="50" relative="1" as="geometry">
            <mxPoint x="100" y="370" as="sourcePoint" />
            <mxPoint x="100" y="400" as="targetPoint" />
          </mxGeometry>
        </mxCell>
        <mxCell id="qRrsi4mGmzIIHp8oxD2m-112" value="" style="rounded=0;whiteSpace=wrap;html=1;strokeColor=none;" vertex="1" parent="1">
          <mxGeometry x="95" y="376" width="10" height="14" as="geometry" />
        </mxCell>
        <mxCell id="qRrsi4mGmzIIHp8oxD2m-113" value="&lt;div&gt;&lt;br&gt;&lt;/div&gt;USENIX&amp;nbsp;&lt;span style=&quot;font-size: 10px;&quot;&gt;2/2&lt;/span&gt;" style="text;html=1;align=center;verticalAlign=middle;whiteSpace=wrap;rounded=0;" vertex="1" parent="1">
          <mxGeometry x="90" y="340" width="40" height="30" as="geometry" />
        </mxCell>
        <mxCell id="qRrsi4mGmzIIHp8oxD2m-110" value="" style="endArrow=none;html=1;rounded=0;entryX=0.626;entryY=0;entryDx=0;entryDy=0;entryPerimeter=0;exitX=0.5;exitY=1;exitDx=0;exitDy=0;" edge="1" parent="1">
          <mxGeometry width="50" height="50" relative="1" as="geometry">
            <mxPoint x="690" y="370" as="sourcePoint" />
            <mxPoint x="690" y="400" as="targetPoint" />
          </mxGeometry>
        </mxCell>
        <mxCell id="qRrsi4mGmzIIHp8oxD2m-108" value="" style="rounded=0;whiteSpace=wrap;html=1;strokeColor=none;" vertex="1" parent="1">
          <mxGeometry x="685" y="376" width="10" height="14" as="geometry" />
        </mxCell>
        <mxCell id="qRrsi4mGmzIIHp8oxD2m-109" value="&lt;div&gt;&lt;br&gt;&lt;/div&gt;USENIX&amp;nbsp;&lt;span style=&quot;font-size: 10px;&quot;&gt;1/2&lt;/span&gt;" style="text;html=1;align=center;verticalAlign=middle;whiteSpace=wrap;rounded=0;" vertex="1" parent="1">
          <mxGeometry x="680" y="340" width="40" height="30" as="geometry" />
        </mxCell>
        <mxCell id="qRrsi4mGmzIIHp8oxD2m-77" value="" style="endArrow=none;html=1;rounded=0;entryX=0.626;entryY=0;entryDx=0;entryDy=0;entryPerimeter=0;exitX=0.5;exitY=1;exitDx=0;exitDy=0;" edge="1" parent="1" source="qRrsi4mGmzIIHp8oxD2m-76" target="qRrsi4mGmzIIHp8oxD2m-20">
          <mxGeometry width="50" height="50" relative="1" as="geometry">
            <mxPoint x="330" y="360" as="sourcePoint" />
            <mxPoint x="329.9200000000001" y="370.1399999999999" as="targetPoint" />
          </mxGeometry>
        </mxCell>
        <mxCell id="qRrsi4mGmzIIHp8oxD2m-101" value="" style="rounded=0;whiteSpace=wrap;html=1;strokeColor=none;" vertex="1" parent="1">
          <mxGeometry x="325" y="376" width="10" height="14" as="geometry" />
        </mxCell>
        <mxCell id="qRrsi4mGmzIIHp8oxD2m-91" value="" style="endArrow=none;html=1;rounded=0;exitX=0.25;exitY=1;exitDx=0;exitDy=0;" edge="1" parent="1" source="qRrsi4mGmzIIHp8oxD2m-27">
          <mxGeometry width="50" height="50" relative="1" as="geometry">
            <mxPoint x="860" y="380" as="sourcePoint" />
            <mxPoint x="860" y="450" as="targetPoint" />
          </mxGeometry>
        </mxCell>
        <mxCell id="qRrsi4mGmzIIHp8oxD2m-87" value="" style="endArrow=none;html=1;rounded=0;exitX=0.624;exitY=1.004;exitDx=0;exitDy=0;entryX=0.5;entryY=0;entryDx=0;entryDy=0;exitPerimeter=0;" edge="1" parent="1" target="qRrsi4mGmzIIHp8oxD2m-86" source="qRrsi4mGmzIIHp8oxD2m-50">
          <mxGeometry width="50" height="50" relative="1" as="geometry">
            <mxPoint x="810" y="450" as="sourcePoint" />
            <mxPoint x="810" y="470" as="targetPoint" />
            <Array as="points">
              <mxPoint x="810" y="430" />
              <mxPoint x="810" y="430" />
              <mxPoint x="810" y="440" />
            </Array>
          </mxGeometry>
        </mxCell>
        <mxCell id="qRrsi4mGmzIIHp8oxD2m-105" value="" style="rounded=0;whiteSpace=wrap;html=1;strokeColor=none;" vertex="1" parent="1">
          <mxGeometry x="812" y="431" width="60" height="13.5" as="geometry" />
        </mxCell>
        <mxCell id="qRrsi4mGmzIIHp8oxD2m-53" value="" style="group;resizeWidth=1;resizeHeight=1;" vertex="1" connectable="0" parent="1">
          <mxGeometry x="40" y="400" width="960" height="80" as="geometry" />
        </mxCell>
        <mxCell id="qRrsi4mGmzIIHp8oxD2m-119" value="" style="endArrow=none;html=1;rounded=0;entryX=0.626;entryY=0;entryDx=0;entryDy=0;entryPerimeter=0;exitX=0.5;exitY=1;exitDx=0;exitDy=0;" edge="1" parent="qRrsi4mGmzIIHp8oxD2m-53">
          <mxGeometry width="50" height="50" relative="1" as="geometry">
            <mxPoint x="650" y="20" as="sourcePoint" />
            <mxPoint x="650" y="50" as="targetPoint" />
          </mxGeometry>
        </mxCell>
        <mxCell id="qRrsi4mGmzIIHp8oxD2m-120" value="" style="rounded=0;whiteSpace=wrap;html=1;strokeColor=none;" vertex="1" parent="qRrsi4mGmzIIHp8oxD2m-53">
          <mxGeometry x="645" y="30" width="10" height="14.5" as="geometry" />
        </mxCell>
        <mxCell id="qRrsi4mGmzIIHp8oxD2m-122" value="&lt;div&gt;&lt;span style=&quot;background-color: transparent; color: light-dark(rgb(0, 0, 0), rgb(255, 255, 255));&quot;&gt;ACNS&amp;nbsp;&lt;/span&gt;&lt;span style=&quot;background-color: transparent; color: light-dark(rgb(0, 0, 0), rgb(255, 255, 255)); font-size: 10px;&quot;&gt;1/2&lt;/span&gt;&lt;/div&gt;&lt;div&gt;&lt;span style=&quot;background-color: transparent; color: light-dark(rgb(0, 0, 0), rgb(255, 255, 255)); font-size: 10px;&quot;&gt;&lt;br&gt;&lt;/span&gt;&lt;/div&gt;" style="text;html=1;align=center;verticalAlign=middle;whiteSpace=wrap;rounded=0;" vertex="1" parent="qRrsi4mGmzIIHp8oxD2m-53">
          <mxGeometry x="620" y="50" width="60" height="30" as="geometry" />
        </mxCell>
        <mxCell id="qRrsi4mGmzIIHp8oxD2m-41" value="" style="whiteSpace=wrap;html=1;aspect=fixed;resizeWidth=1;resizeHeight=1;" vertex="1" parent="qRrsi4mGmzIIHp8oxD2m-53">
          <mxGeometry width="80" height="20" as="geometry" />
        </mxCell>
        <mxCell id="qRrsi4mGmzIIHp8oxD2m-42" value="" style="whiteSpace=wrap;html=1;aspect=fixed;resizeWidth=1;resizeHeight=1;" vertex="1" parent="qRrsi4mGmzIIHp8oxD2m-53">
          <mxGeometry x="80" width="80" height="20" as="geometry" />
        </mxCell>
        <mxCell id="qRrsi4mGmzIIHp8oxD2m-43" value="" style="whiteSpace=wrap;html=1;aspect=fixed;resizeWidth=1;resizeHeight=1;" vertex="1" parent="qRrsi4mGmzIIHp8oxD2m-53">
          <mxGeometry x="160" width="80" height="20" as="geometry" />
        </mxCell>
        <mxCell id="qRrsi4mGmzIIHp8oxD2m-44" value="" style="whiteSpace=wrap;html=1;aspect=fixed;resizeWidth=1;resizeHeight=1;" vertex="1" parent="qRrsi4mGmzIIHp8oxD2m-53">
          <mxGeometry x="240" width="80" height="20" as="geometry" />
        </mxCell>
        <mxCell id="qRrsi4mGmzIIHp8oxD2m-45" value="" style="whiteSpace=wrap;html=1;aspect=fixed;resizeWidth=1;resizeHeight=1;" vertex="1" parent="qRrsi4mGmzIIHp8oxD2m-53">
          <mxGeometry x="320" width="80" height="20" as="geometry" />
        </mxCell>
        <mxCell id="qRrsi4mGmzIIHp8oxD2m-46" value="" style="whiteSpace=wrap;html=1;aspect=fixed;resizeWidth=1;resizeHeight=1;" vertex="1" parent="qRrsi4mGmzIIHp8oxD2m-53">
          <mxGeometry x="400" width="80" height="20" as="geometry" />
        </mxCell>
        <mxCell id="qRrsi4mGmzIIHp8oxD2m-47" value="" style="whiteSpace=wrap;html=1;aspect=fixed;resizeWidth=1;resizeHeight=1;" vertex="1" parent="qRrsi4mGmzIIHp8oxD2m-53">
          <mxGeometry x="480" width="80" height="20" as="geometry" />
        </mxCell>
        <mxCell id="qRrsi4mGmzIIHp8oxD2m-48" value="" style="whiteSpace=wrap;html=1;aspect=fixed;resizeWidth=1;resizeHeight=1;" vertex="1" parent="qRrsi4mGmzIIHp8oxD2m-53">
          <mxGeometry x="560" width="80" height="20" as="geometry" />
        </mxCell>
        <mxCell id="qRrsi4mGmzIIHp8oxD2m-49" value="" style="whiteSpace=wrap;html=1;aspect=fixed;resizeWidth=1;resizeHeight=1;" vertex="1" parent="qRrsi4mGmzIIHp8oxD2m-53">
          <mxGeometry x="640" width="80" height="20" as="geometry" />
        </mxCell>
        <mxCell id="qRrsi4mGmzIIHp8oxD2m-50" value="" style="whiteSpace=wrap;html=1;aspect=fixed;resizeWidth=1;resizeHeight=1;" vertex="1" parent="qRrsi4mGmzIIHp8oxD2m-53">
          <mxGeometry x="720" width="80" height="20" as="geometry" />
        </mxCell>
        <mxCell id="qRrsi4mGmzIIHp8oxD2m-51" value="" style="whiteSpace=wrap;html=1;aspect=fixed;resizeWidth=1;resizeHeight=1;" vertex="1" parent="qRrsi4mGmzIIHp8oxD2m-53">
          <mxGeometry x="800" width="80" height="20" as="geometry" />
        </mxCell>
        <mxCell id="qRrsi4mGmzIIHp8oxD2m-52" value="" style="whiteSpace=wrap;html=1;aspect=fixed;resizeWidth=1;resizeHeight=1;" vertex="1" parent="qRrsi4mGmzIIHp8oxD2m-53">
          <mxGeometry x="880" width="80" height="20" as="geometry" />
        </mxCell>
        <mxCell id="qRrsi4mGmzIIHp8oxD2m-21" value="5" style="text;html=1;align=center;verticalAlign=middle;whiteSpace=wrap;rounded=0;" vertex="1" parent="qRrsi4mGmzIIHp8oxD2m-53">
          <mxGeometry x="320" width="80" height="20" as="geometry" />
        </mxCell>
        <mxCell id="qRrsi4mGmzIIHp8oxD2m-95" value="" style="endArrow=none;html=1;rounded=0;entryX=0.124;entryY=0.007;entryDx=0;entryDy=0;entryPerimeter=0;" edge="1" parent="qRrsi4mGmzIIHp8oxD2m-53">
          <mxGeometry width="50" height="50" relative="1" as="geometry">
            <mxPoint x="150" y="19.860000000000014" as="sourcePoint" />
            <mxPoint x="149.92000000000007" y="29.999999999999886" as="targetPoint" />
          </mxGeometry>
        </mxCell>
        <mxCell id="qRrsi4mGmzIIHp8oxD2m-117" value="" style="endArrow=none;html=1;rounded=0;entryX=0.626;entryY=0;entryDx=0;entryDy=0;entryPerimeter=0;exitX=0.5;exitY=1;exitDx=0;exitDy=0;" edge="1" parent="qRrsi4mGmzIIHp8oxD2m-53">
          <mxGeometry width="50" height="50" relative="1" as="geometry">
            <mxPoint x="390" y="20" as="sourcePoint" />
            <mxPoint x="390" y="50" as="targetPoint" />
          </mxGeometry>
        </mxCell>
        <mxCell id="qRrsi4mGmzIIHp8oxD2m-118" value="" style="rounded=0;whiteSpace=wrap;html=1;strokeColor=none;" vertex="1" parent="qRrsi4mGmzIIHp8oxD2m-53">
          <mxGeometry x="385" y="30" width="10" height="14.5" as="geometry" />
        </mxCell>
        <mxCell id="qRrsi4mGmzIIHp8oxD2m-65" value="" style="endArrow=none;html=1;rounded=0;exitX=0.75;exitY=1;exitDx=0;exitDy=0;entryX=0.5;entryY=0;entryDx=0;entryDy=0;" edge="1" parent="qRrsi4mGmzIIHp8oxD2m-53" target="qRrsi4mGmzIIHp8oxD2m-64">
          <mxGeometry width="50" height="50" relative="1" as="geometry">
            <mxPoint x="380" y="20" as="sourcePoint" />
            <mxPoint x="380" y="40" as="targetPoint" />
          </mxGeometry>
        </mxCell>
        <mxCell id="qRrsi4mGmzIIHp8oxD2m-64" value="&lt;div&gt;TCC&lt;/div&gt;&lt;div&gt;&lt;br&gt;&lt;/div&gt;" style="text;html=1;align=center;verticalAlign=middle;whiteSpace=wrap;rounded=0;" vertex="1" parent="qRrsi4mGmzIIHp8oxD2m-53">
          <mxGeometry x="350" y="30" width="60" height="30" as="geometry" />
        </mxCell>
        <mxCell id="qRrsi4mGmzIIHp8oxD2m-116" value="&lt;div&gt;&lt;span style=&quot;background-color: transparent; color: light-dark(rgb(0, 0, 0), rgb(255, 255, 255));&quot;&gt;PETs&amp;nbsp;&lt;/span&gt;&lt;span style=&quot;background-color: transparent; color: light-dark(rgb(0, 0, 0), rgb(255, 255, 255)); font-size: 10px;&quot;&gt;3/4&lt;/span&gt;&lt;/div&gt;&lt;div&gt;&lt;span style=&quot;background-color: transparent; color: light-dark(rgb(0, 0, 0), rgb(255, 255, 255)); font-size: 10px;&quot;&gt;&lt;br&gt;&lt;/span&gt;&lt;/div&gt;" style="text;html=1;align=center;verticalAlign=middle;whiteSpace=wrap;rounded=0;" vertex="1" parent="qRrsi4mGmzIIHp8oxD2m-53">
          <mxGeometry x="360" y="50" width="60" height="30" as="geometry" />
        </mxCell>
        <mxCell id="qRrsi4mGmzIIHp8oxD2m-125" value="&lt;div&gt;&lt;span style=&quot;background-color: transparent; color: light-dark(rgb(0, 0, 0), rgb(255, 255, 255));&quot;&gt;ACNS &lt;font style=&quot;font-size: 10px;&quot;&gt;2/2&lt;/font&gt;&lt;/span&gt;&lt;/div&gt;&lt;div&gt;&lt;span style=&quot;background-color: transparent; color: light-dark(rgb(0, 0, 0), rgb(255, 255, 255)); font-size: 10px;&quot;&gt;&lt;br&gt;&lt;/span&gt;&lt;/div&gt;" style="text;html=1;align=center;verticalAlign=middle;whiteSpace=wrap;rounded=0;" vertex="1" parent="qRrsi4mGmzIIHp8oxD2m-53">
          <mxGeometry x="-23" y="30" width="60" height="30" as="geometry" />
        </mxCell>
        <mxCell id="qRrsi4mGmzIIHp8oxD2m-127" value="" style="endArrow=none;html=1;rounded=0;exitX=0.75;exitY=1;exitDx=0;exitDy=0;entryX=0.5;entryY=0;entryDx=0;entryDy=0;" edge="1" parent="qRrsi4mGmzIIHp8oxD2m-53">
          <mxGeometry width="50" height="50" relative="1" as="geometry">
            <mxPoint x="20" y="20" as="sourcePoint" />
            <mxPoint x="20" y="30" as="targetPoint" />
          </mxGeometry>
        </mxCell>
        <mxCell id="qRrsi4mGmzIIHp8oxD2m-1" value="" style="rounded=0;whiteSpace=wrap;html=1;" vertex="1" parent="1">
          <mxGeometry x="40" y="40" width="960" height="80" as="geometry" />
        </mxCell>
        <mxCell id="qRrsi4mGmzIIHp8oxD2m-2" value="" style="whiteSpace=wrap;html=1;aspect=fixed;" vertex="1" parent="1">
          <mxGeometry x="40" y="160" width="80" height="80" as="geometry" />
        </mxCell>
        <mxCell id="qRrsi4mGmzIIHp8oxD2m-13" value="" style="whiteSpace=wrap;html=1;aspect=fixed;" vertex="1" parent="1">
          <mxGeometry x="120" y="160" width="80" height="80" as="geometry" />
        </mxCell>
        <mxCell id="qRrsi4mGmzIIHp8oxD2m-14" value="" style="endArrow=none;html=1;rounded=0;entryX=1;entryY=1;entryDx=0;entryDy=0;" edge="1" parent="1">
          <mxGeometry width="50" height="50" relative="1" as="geometry">
            <mxPoint x="40" y="280" as="sourcePoint" />
            <mxPoint x="1000" y="280" as="targetPoint" />
          </mxGeometry>
        </mxCell>
        <mxCell id="qRrsi4mGmzIIHp8oxD2m-15" value="&lt;div&gt;&lt;br&gt;&lt;/div&gt;&lt;span style=&quot;background-color: transparent; color: light-dark(rgb(0, 0, 0), rgb(255, 255, 255));&quot;&gt;CCS&amp;nbsp;&lt;/span&gt;&lt;span style=&quot;font-size: 10px;&quot;&gt;1/2&lt;/span&gt;" style="text;html=1;align=center;verticalAlign=middle;whiteSpace=wrap;rounded=0;" vertex="1" parent="1">
          <mxGeometry x="17" y="359.93" width="60" height="30" as="geometry" />
        </mxCell>
        <mxCell id="qRrsi4mGmzIIHp8oxD2m-16" value="" style="endArrow=none;html=1;rounded=0;entryX=0.124;entryY=0.007;entryDx=0;entryDy=0;entryPerimeter=0;" edge="1" parent="1">
          <mxGeometry width="50" height="50" relative="1" as="geometry">
            <mxPoint x="50" y="390" as="sourcePoint" />
            <mxPoint x="49.92000000000007" y="400.1399999999999" as="targetPoint" />
          </mxGeometry>
        </mxCell>
        <mxCell id="qRrsi4mGmzIIHp8oxD2m-17" value="1" style="text;html=1;align=center;verticalAlign=middle;whiteSpace=wrap;rounded=0;" vertex="1" parent="1">
          <mxGeometry x="40" y="400" width="80" height="20" as="geometry" />
        </mxCell>
        <mxCell id="qRrsi4mGmzIIHp8oxD2m-18" value="2" style="text;html=1;align=center;verticalAlign=middle;whiteSpace=wrap;rounded=0;" vertex="1" parent="1">
          <mxGeometry x="120" y="400" width="80" height="20" as="geometry" />
        </mxCell>
        <mxCell id="qRrsi4mGmzIIHp8oxD2m-19" value="3" style="text;html=1;align=center;verticalAlign=middle;whiteSpace=wrap;rounded=0;" vertex="1" parent="1">
          <mxGeometry x="200" y="400" width="80" height="20" as="geometry" />
        </mxCell>
        <mxCell id="qRrsi4mGmzIIHp8oxD2m-20" value="4" style="text;html=1;align=center;verticalAlign=middle;whiteSpace=wrap;rounded=0;" vertex="1" parent="1">
          <mxGeometry x="280" y="400" width="80" height="20" as="geometry" />
        </mxCell>
        <mxCell id="qRrsi4mGmzIIHp8oxD2m-22" value="6" style="text;html=1;align=center;verticalAlign=middle;whiteSpace=wrap;rounded=0;" vertex="1" parent="1">
          <mxGeometry x="440" y="400" width="80" height="20" as="geometry" />
        </mxCell>
        <mxCell id="qRrsi4mGmzIIHp8oxD2m-23" value="7" style="text;html=1;align=center;verticalAlign=middle;whiteSpace=wrap;rounded=0;" vertex="1" parent="1">
          <mxGeometry x="520" y="400" width="80" height="20" as="geometry" />
        </mxCell>
        <mxCell id="qRrsi4mGmzIIHp8oxD2m-24" value="8" style="text;html=1;align=center;verticalAlign=middle;whiteSpace=wrap;rounded=0;" vertex="1" parent="1">
          <mxGeometry x="600" y="400" width="80" height="20" as="geometry" />
        </mxCell>
        <mxCell id="qRrsi4mGmzIIHp8oxD2m-25" value="9" style="text;html=1;align=center;verticalAlign=middle;whiteSpace=wrap;rounded=0;" vertex="1" parent="1">
          <mxGeometry x="680" y="400" width="80" height="20" as="geometry" />
        </mxCell>
        <mxCell id="qRrsi4mGmzIIHp8oxD2m-26" value="10" style="text;html=1;align=center;verticalAlign=middle;whiteSpace=wrap;rounded=0;" vertex="1" parent="1">
          <mxGeometry x="760" y="400" width="80" height="20" as="geometry" />
        </mxCell>
        <mxCell id="qRrsi4mGmzIIHp8oxD2m-27" value="11" style="text;html=1;align=center;verticalAlign=middle;whiteSpace=wrap;rounded=0;" vertex="1" parent="1">
          <mxGeometry x="840" y="400" width="80" height="20" as="geometry" />
        </mxCell>
        <mxCell id="qRrsi4mGmzIIHp8oxD2m-28" value="12" style="text;html=1;align=center;verticalAlign=middle;whiteSpace=wrap;rounded=0;" vertex="1" parent="1">
          <mxGeometry x="920" y="400" width="80" height="20" as="geometry" />
        </mxCell>
        <mxCell id="qRrsi4mGmzIIHp8oxD2m-29" value="" style="whiteSpace=wrap;html=1;aspect=fixed;" vertex="1" parent="1">
          <mxGeometry x="200" y="160" width="80" height="80" as="geometry" />
        </mxCell>
        <mxCell id="qRrsi4mGmzIIHp8oxD2m-30" value="" style="whiteSpace=wrap;html=1;aspect=fixed;" vertex="1" parent="1">
          <mxGeometry x="280" y="160" width="80" height="80" as="geometry" />
        </mxCell>
        <mxCell id="qRrsi4mGmzIIHp8oxD2m-31" value="" style="whiteSpace=wrap;html=1;aspect=fixed;" vertex="1" parent="1">
          <mxGeometry x="360" y="160" width="80" height="80" as="geometry" />
        </mxCell>
        <mxCell id="qRrsi4mGmzIIHp8oxD2m-32" value="" style="whiteSpace=wrap;html=1;aspect=fixed;" vertex="1" parent="1">
          <mxGeometry x="440" y="160" width="80" height="80" as="geometry" />
        </mxCell>
        <mxCell id="qRrsi4mGmzIIHp8oxD2m-33" value="" style="whiteSpace=wrap;html=1;aspect=fixed;" vertex="1" parent="1">
          <mxGeometry x="520" y="160" width="80" height="80" as="geometry" />
        </mxCell>
        <mxCell id="qRrsi4mGmzIIHp8oxD2m-34" value="" style="whiteSpace=wrap;html=1;aspect=fixed;" vertex="1" parent="1">
          <mxGeometry x="600" y="160" width="80" height="80" as="geometry" />
        </mxCell>
        <mxCell id="qRrsi4mGmzIIHp8oxD2m-35" value="" style="whiteSpace=wrap;html=1;aspect=fixed;" vertex="1" parent="1">
          <mxGeometry x="680" y="160" width="80" height="80" as="geometry" />
        </mxCell>
        <mxCell id="qRrsi4mGmzIIHp8oxD2m-36" value="" style="whiteSpace=wrap;html=1;aspect=fixed;" vertex="1" parent="1">
          <mxGeometry x="760" y="160" width="80" height="80" as="geometry" />
        </mxCell>
        <mxCell id="qRrsi4mGmzIIHp8oxD2m-37" value="" style="whiteSpace=wrap;html=1;aspect=fixed;" vertex="1" parent="1">
          <mxGeometry x="840" y="160" width="80" height="80" as="geometry" />
        </mxCell>
        <mxCell id="qRrsi4mGmzIIHp8oxD2m-38" value="" style="whiteSpace=wrap;html=1;aspect=fixed;" vertex="1" parent="1">
          <mxGeometry x="920" y="160" width="80" height="80" as="geometry" />
        </mxCell>
        <mxCell id="qRrsi4mGmzIIHp8oxD2m-39" value="&lt;div&gt;&lt;font style=&quot;font-size: 10px;&quot;&gt;&lt;br&gt;&lt;/font&gt;&lt;/div&gt;&lt;div&gt;&lt;span style=&quot;&quot;&gt;&lt;span style=&quot;color: light-dark(rgb(0, 0, 0), rgb(255, 255, 255));&quot;&gt;CCS&amp;nbsp;&lt;/span&gt;&lt;span style=&quot;font-size: 10px; color: light-dark(rgb(0, 0, 0), rgb(255, 255, 255));&quot;&gt;2/2&lt;/span&gt;&lt;/span&gt;&lt;/div&gt;" style="text;html=1;align=center;verticalAlign=middle;whiteSpace=wrap;rounded=0;labelBackgroundColor=none;" vertex="1" parent="1">
          <mxGeometry x="280" y="359.86" width="60" height="30" as="geometry" />
        </mxCell>
        <mxCell id="qRrsi4mGmzIIHp8oxD2m-40" value="" style="endArrow=none;html=1;rounded=0;exitX=0.5;exitY=1;exitDx=0;exitDy=0;entryX=0.5;entryY=0;entryDx=0;entryDy=0;" edge="1" parent="1" source="qRrsi4mGmzIIHp8oxD2m-39">
          <mxGeometry width="50" height="50" relative="1" as="geometry">
            <mxPoint x="309.64" y="429.86" as="sourcePoint" />
            <mxPoint x="310" y="399.86" as="targetPoint" />
          </mxGeometry>
        </mxCell>
        <mxCell id="qRrsi4mGmzIIHp8oxD2m-55" value="&lt;div&gt;SAC&amp;nbsp;&lt;span style=&quot;background-color: transparent; color: light-dark(rgb(0, 0, 0), rgb(255, 255, 255));&quot;&gt;&lt;font style=&quot;font-size: 10px;&quot;&gt;1/2&lt;/font&gt;&lt;/span&gt;&lt;/div&gt;&lt;div&gt;&lt;span style=&quot;background-color: transparent; color: light-dark(rgb(0, 0, 0), rgb(255, 255, 255));&quot;&gt;&lt;font style=&quot;font-size: 10px;&quot;&gt;&lt;br&gt;&lt;/font&gt;&lt;/span&gt;&lt;/div&gt;" style="text;html=1;align=center;verticalAlign=middle;whiteSpace=wrap;rounded=0;" vertex="1" parent="1">
          <mxGeometry x="80" y="430" width="60" height="30" as="geometry" />
        </mxCell>
        <mxCell id="qRrsi4mGmzIIHp8oxD2m-57" value="" style="endArrow=none;html=1;rounded=0;exitX=0.75;exitY=1;exitDx=0;exitDy=0;entryX=0.5;entryY=0;entryDx=0;entryDy=0;" edge="1" parent="1" target="qRrsi4mGmzIIHp8oxD2m-55">
          <mxGeometry width="50" height="50" relative="1" as="geometry">
            <mxPoint x="110" y="420" as="sourcePoint" />
            <mxPoint x="110" y="440" as="targetPoint" />
          </mxGeometry>
        </mxCell>
        <mxCell id="qRrsi4mGmzIIHp8oxD2m-58" value="&lt;div&gt;SAC&amp;nbsp;&lt;span style=&quot;background-color: transparent; color: light-dark(rgb(0, 0, 0), rgb(255, 255, 255));&quot;&gt;&lt;font style=&quot;font-size: 10px;&quot;&gt;1/2&lt;/font&gt;&lt;/span&gt;&lt;/div&gt;&lt;div&gt;&lt;span style=&quot;background-color: transparent; color: light-dark(rgb(0, 0, 0), rgb(255, 255, 255));&quot;&gt;&lt;font style=&quot;font-size: 10px;&quot;&gt;&lt;br&gt;&lt;/font&gt;&lt;/span&gt;&lt;/div&gt;" style="text;html=1;align=center;verticalAlign=middle;whiteSpace=wrap;rounded=0;" vertex="1" parent="1">
          <mxGeometry x="360" y="430" width="40" height="30" as="geometry" />
        </mxCell>
        <mxCell id="qRrsi4mGmzIIHp8oxD2m-59" value="" style="endArrow=none;html=1;rounded=0;exitX=0.75;exitY=1;exitDx=0;exitDy=0;entryX=0.5;entryY=0;entryDx=0;entryDy=0;" edge="1" parent="1" target="qRrsi4mGmzIIHp8oxD2m-58">
          <mxGeometry width="50" height="50" relative="1" as="geometry">
            <mxPoint x="380" y="420" as="sourcePoint" />
            <mxPoint x="380" y="440" as="targetPoint" />
          </mxGeometry>
        </mxCell>
        <mxCell id="qRrsi4mGmzIIHp8oxD2m-60" value="&lt;div&gt;&lt;font style=&quot;font-size: 10px;&quot;&gt;&lt;br&gt;&lt;/font&gt;&lt;/div&gt;Crypto" style="text;html=1;align=center;verticalAlign=middle;whiteSpace=wrap;rounded=0;" vertex="1" parent="1">
          <mxGeometry x="125" y="360" width="60" height="29.86" as="geometry" />
        </mxCell>
        <mxCell id="qRrsi4mGmzIIHp8oxD2m-61" value="" style="endArrow=none;html=1;rounded=0;entryX=0.124;entryY=0.007;entryDx=0;entryDy=0;entryPerimeter=0;" edge="1" parent="1">
          <mxGeometry width="50" height="50" relative="1" as="geometry">
            <mxPoint x="150" y="389.86" as="sourcePoint" />
            <mxPoint x="149.92000000000007" y="399.9999999999999" as="targetPoint" />
          </mxGeometry>
        </mxCell>
        <mxCell id="qRrsi4mGmzIIHp8oxD2m-62" value="&lt;div&gt;&lt;font style=&quot;font-size: 10px;&quot;&gt;&lt;br&gt;&lt;/font&gt;&lt;/div&gt;&lt;div&gt;AC&lt;/div&gt;" style="text;html=1;align=center;verticalAlign=middle;whiteSpace=wrap;rounded=0;" vertex="1" parent="1">
          <mxGeometry x="370" y="360" width="60" height="29.86" as="geometry" />
        </mxCell>
        <mxCell id="qRrsi4mGmzIIHp8oxD2m-63" value="" style="endArrow=none;html=1;rounded=0;entryX=0.124;entryY=0.007;entryDx=0;entryDy=0;entryPerimeter=0;" edge="1" parent="1">
          <mxGeometry width="50" height="50" relative="1" as="geometry">
            <mxPoint x="400" y="389.86" as="sourcePoint" />
            <mxPoint x="399.9200000000001" y="399.9999999999999" as="targetPoint" />
          </mxGeometry>
        </mxCell>
        <mxCell id="qRrsi4mGmzIIHp8oxD2m-66" value="&lt;div&gt;&lt;br&gt;&lt;/div&gt;S&amp;amp;P&amp;nbsp;&lt;font style=&quot;font-size: 10px;&quot;&gt;1/2&lt;/font&gt;" style="text;html=1;align=center;verticalAlign=middle;whiteSpace=wrap;rounded=0;" vertex="1" parent="1">
          <mxGeometry x="430" y="360" width="60" height="30" as="geometry" />
        </mxCell>
        <mxCell id="qRrsi4mGmzIIHp8oxD2m-67" value="" style="endArrow=none;html=1;rounded=0;entryX=0.124;entryY=0.007;entryDx=0;entryDy=0;entryPerimeter=0;" edge="1" parent="1">
          <mxGeometry width="50" height="50" relative="1" as="geometry">
            <mxPoint x="460" y="390" as="sourcePoint" />
            <mxPoint x="459.9200000000001" y="400.1399999999999" as="targetPoint" />
          </mxGeometry>
        </mxCell>
        <mxCell id="qRrsi4mGmzIIHp8oxD2m-68" value="&lt;div&gt;&lt;font style=&quot;font-size: 10px;&quot;&gt;2/2&lt;/font&gt;&lt;/div&gt;S&amp;amp;P" style="text;html=1;align=center;verticalAlign=middle;whiteSpace=wrap;rounded=0;" vertex="1" parent="1">
          <mxGeometry x="850" y="360" width="40" height="30" as="geometry" />
        </mxCell>
        <mxCell id="qRrsi4mGmzIIHp8oxD2m-69" value="" style="endArrow=none;html=1;rounded=0;entryX=0.124;entryY=0.007;entryDx=0;entryDy=0;entryPerimeter=0;" edge="1" parent="1">
          <mxGeometry width="50" height="50" relative="1" as="geometry">
            <mxPoint x="870" y="390" as="sourcePoint" />
            <mxPoint x="869.9200000000001" y="400.1399999999999" as="targetPoint" />
          </mxGeometry>
        </mxCell>
        <mxCell id="qRrsi4mGmzIIHp8oxD2m-70" value="&lt;div&gt;&lt;br&gt;&lt;/div&gt;&lt;div&gt;&lt;span style=&quot;background-color: transparent; color: light-dark(rgb(0, 0, 0), rgb(255, 255, 255));&quot;&gt;CHES&amp;nbsp;&lt;/span&gt;&lt;span style=&quot;font-size: 10px; background-color: transparent; color: light-dark(rgb(0, 0, 0), rgb(255, 255, 255));&quot;&gt;1/4&lt;/span&gt;&lt;/div&gt;" style="text;html=1;align=center;verticalAlign=middle;whiteSpace=wrap;rounded=0;" vertex="1" parent="1">
          <mxGeometry x="530" y="360" width="60" height="30" as="geometry" />
        </mxCell>
        <mxCell id="qRrsi4mGmzIIHp8oxD2m-71" value="" style="endArrow=none;html=1;rounded=0;entryX=0.124;entryY=0.007;entryDx=0;entryDy=0;entryPerimeter=0;" edge="1" parent="1">
          <mxGeometry width="50" height="50" relative="1" as="geometry">
            <mxPoint x="560" y="390" as="sourcePoint" />
            <mxPoint x="559.9200000000001" y="400.1399999999999" as="targetPoint" />
          </mxGeometry>
        </mxCell>
        <mxCell id="qRrsi4mGmzIIHp8oxD2m-72" value="&lt;div&gt;&lt;font style=&quot;font-size: 10px;&quot;&gt;2/4&lt;/font&gt;&lt;/div&gt;CHES" style="text;html=1;align=center;verticalAlign=middle;whiteSpace=wrap;rounded=0;" vertex="1" parent="1">
          <mxGeometry x="790" y="359.86" width="40" height="30" as="geometry" />
        </mxCell>
        <mxCell id="qRrsi4mGmzIIHp8oxD2m-73" value="" style="endArrow=none;html=1;rounded=0;entryX=0.124;entryY=0.007;entryDx=0;entryDy=0;entryPerimeter=0;" edge="1" parent="1">
          <mxGeometry width="50" height="50" relative="1" as="geometry">
            <mxPoint x="810" y="389.86" as="sourcePoint" />
            <mxPoint x="809.9200000000001" y="399.9999999999999" as="targetPoint" />
          </mxGeometry>
        </mxCell>
        <mxCell id="qRrsi4mGmzIIHp8oxD2m-74" value="&lt;div&gt;&lt;br&gt;&lt;/div&gt;CHES&amp;nbsp;&lt;span style=&quot;font-size: 10px;&quot;&gt;3/4&lt;/span&gt;" style="text;html=1;align=center;verticalAlign=middle;whiteSpace=wrap;rounded=0;" vertex="1" parent="1">
          <mxGeometry x="74" y="359.5" width="60" height="30" as="geometry" />
        </mxCell>
        <mxCell id="qRrsi4mGmzIIHp8oxD2m-75" value="" style="endArrow=none;html=1;rounded=0;entryX=0.124;entryY=0.007;entryDx=0;entryDy=0;entryPerimeter=0;" edge="1" parent="1">
          <mxGeometry width="50" height="50" relative="1" as="geometry">
            <mxPoint x="90" y="389.86" as="sourcePoint" />
            <mxPoint x="89.92000000000007" y="399.9999999999999" as="targetPoint" />
          </mxGeometry>
        </mxCell>
        <mxCell id="qRrsi4mGmzIIHp8oxD2m-76" value="&lt;div&gt;&lt;br&gt;&lt;/div&gt;CHES&amp;nbsp;&lt;span style=&quot;font-size: 10px;&quot;&gt;4/4&lt;/span&gt;" style="text;html=1;align=center;verticalAlign=middle;whiteSpace=wrap;rounded=0;" vertex="1" parent="1">
          <mxGeometry x="310" y="340" width="40" height="30" as="geometry" />
        </mxCell>
        <mxCell id="qRrsi4mGmzIIHp8oxD2m-78" value="&lt;div&gt;AsiaCCS&amp;nbsp;&lt;span style=&quot;background-color: transparent; color: light-dark(rgb(0, 0, 0), rgb(255, 255, 255));&quot;&gt;&lt;font style=&quot;font-size: 10px;&quot;&gt;1/2&lt;/font&gt;&lt;/span&gt;&lt;/div&gt;&lt;div&gt;&lt;span style=&quot;background-color: transparent; color: light-dark(rgb(0, 0, 0), rgb(255, 255, 255));&quot;&gt;&lt;font style=&quot;font-size: 10px;&quot;&gt;&lt;br&gt;&lt;/font&gt;&lt;/span&gt;&lt;/div&gt;" style="text;html=1;align=center;verticalAlign=middle;whiteSpace=wrap;rounded=0;" vertex="1" parent="1">
          <mxGeometry x="690" y="430" width="60" height="30" as="geometry" />
        </mxCell>
        <mxCell id="qRrsi4mGmzIIHp8oxD2m-79" value="" style="endArrow=none;html=1;rounded=0;exitX=0.75;exitY=1;exitDx=0;exitDy=0;entryX=0.5;entryY=0;entryDx=0;entryDy=0;" edge="1" parent="1" target="qRrsi4mGmzIIHp8oxD2m-78">
          <mxGeometry width="50" height="50" relative="1" as="geometry">
            <mxPoint x="720" y="420" as="sourcePoint" />
            <mxPoint x="720" y="440" as="targetPoint" />
          </mxGeometry>
        </mxCell>
        <mxCell id="qRrsi4mGmzIIHp8oxD2m-80" value="&lt;div&gt;AsiaCCS&amp;nbsp;&lt;span style=&quot;font-size: 10px; background-color: transparent; color: light-dark(rgb(0, 0, 0), rgb(255, 255, 255));&quot;&gt;1/2&lt;/span&gt;&lt;/div&gt;&lt;div&gt;&lt;span style=&quot;font-size: 10px; background-color: transparent; color: light-dark(rgb(0, 0, 0), rgb(255, 255, 255));&quot;&gt;&lt;br&gt;&lt;/span&gt;&lt;/div&gt;" style="text;html=1;align=center;verticalAlign=middle;whiteSpace=wrap;rounded=0;" vertex="1" parent="1">
          <mxGeometry x="50" y="450" width="60" height="30" as="geometry" />
        </mxCell>
        <mxCell id="qRrsi4mGmzIIHp8oxD2m-81" value="" style="endArrow=none;html=1;rounded=0;exitX=0.5;exitY=1;exitDx=0;exitDy=0;entryX=0.5;entryY=0;entryDx=0;entryDy=0;" edge="1" parent="1" target="qRrsi4mGmzIIHp8oxD2m-80" source="qRrsi4mGmzIIHp8oxD2m-17">
          <mxGeometry width="50" height="50" relative="1" as="geometry">
            <mxPoint x="80" y="440" as="sourcePoint" />
            <mxPoint x="80" y="460" as="targetPoint" />
          </mxGeometry>
        </mxCell>
        <mxCell id="qRrsi4mGmzIIHp8oxD2m-82" value="&lt;div&gt;&lt;font style=&quot;font-size: 10px;&quot;&gt;&lt;br&gt;&lt;/font&gt;&lt;/div&gt;EC" style="text;html=1;align=center;verticalAlign=middle;whiteSpace=wrap;rounded=0;" vertex="1" parent="1">
          <mxGeometry x="750" y="360" width="40" height="30" as="geometry" />
        </mxCell>
        <mxCell id="qRrsi4mGmzIIHp8oxD2m-83" value="" style="endArrow=none;html=1;rounded=0;entryX=0.124;entryY=0.007;entryDx=0;entryDy=0;entryPerimeter=0;" edge="1" parent="1">
          <mxGeometry width="50" height="50" relative="1" as="geometry">
            <mxPoint x="770" y="390" as="sourcePoint" />
            <mxPoint x="769.9200000000001" y="400.1399999999999" as="targetPoint" />
          </mxGeometry>
        </mxCell>
        <mxCell id="qRrsi4mGmzIIHp8oxD2m-84" value="&lt;div&gt;&lt;span style=&quot;background-color: light-dark(#ffffff, var(--ge-dark-color, #121212));&quot;&gt;PKC&lt;/span&gt;&lt;/div&gt;&lt;div&gt;&lt;br&gt;&lt;/div&gt;" style="text;html=1;align=center;verticalAlign=middle;whiteSpace=wrap;rounded=0;" vertex="1" parent="1">
          <mxGeometry x="760" y="430" width="60" height="30" as="geometry" />
        </mxCell>
        <mxCell id="qRrsi4mGmzIIHp8oxD2m-85" value="" style="endArrow=none;html=1;rounded=0;exitX=0.75;exitY=1;exitDx=0;exitDy=0;entryX=0.5;entryY=0;entryDx=0;entryDy=0;" edge="1" parent="1" target="qRrsi4mGmzIIHp8oxD2m-84">
          <mxGeometry width="50" height="50" relative="1" as="geometry">
            <mxPoint x="790" y="420" as="sourcePoint" />
            <mxPoint x="790" y="440" as="targetPoint" />
          </mxGeometry>
        </mxCell>
        <mxCell id="qRrsi4mGmzIIHp8oxD2m-86" value="&lt;div&gt;CT-RSA&lt;/div&gt;&lt;div&gt;&lt;br&gt;&lt;/div&gt;" style="text;html=1;align=center;verticalAlign=middle;whiteSpace=wrap;rounded=0;" vertex="1" parent="1">
          <mxGeometry x="780" y="450" width="60" height="30" as="geometry" />
        </mxCell>
        <mxCell id="qRrsi4mGmzIIHp8oxD2m-88" value="&lt;div&gt;&lt;span style=&quot;&quot;&gt;&amp;nbsp; &lt;font style=&quot;font-size: 10px;&quot;&gt;&amp;nbsp;&lt;/font&gt;Euro&amp;nbsp;&lt;span style=&quot;color: light-dark(rgb(0, 0, 0), rgb(255, 255, 255));&quot;&gt;S&amp;amp;P&lt;/span&gt;&lt;/span&gt;&lt;/div&gt;&lt;div&gt;&lt;span style=&quot;color: light-dark(rgb(0, 0, 0), rgb(255, 255, 255));&quot;&gt;&lt;br&gt;&lt;/span&gt;&lt;/div&gt;" style="text;html=1;align=center;verticalAlign=middle;whiteSpace=wrap;rounded=0;labelBackgroundColor=none;" vertex="1" parent="1">
          <mxGeometry x="794" y="430" width="80" height="30" as="geometry" />
        </mxCell>
        <mxCell id="qRrsi4mGmzIIHp8oxD2m-89" value="" style="endArrow=none;html=1;rounded=0;exitX=0.75;exitY=1;exitDx=0;exitDy=0;" edge="1" parent="1">
          <mxGeometry width="50" height="50" relative="1" as="geometry">
            <mxPoint x="830" y="420" as="sourcePoint" />
            <mxPoint x="830" y="430" as="targetPoint" />
          </mxGeometry>
        </mxCell>
        <mxCell id="qRrsi4mGmzIIHp8oxD2m-90" value="&lt;div&gt;PQCrypto&lt;/div&gt;&lt;div&gt;&lt;br&gt;&lt;/div&gt;" style="text;html=1;align=center;verticalAlign=middle;whiteSpace=wrap;rounded=0;" vertex="1" parent="1">
          <mxGeometry x="839" y="450" width="60" height="30" as="geometry" />
        </mxCell>
        <mxCell id="qRrsi4mGmzIIHp8oxD2m-92" value="&lt;div&gt;&lt;font style=&quot;font-size: 10px;&quot;&gt;1/4&lt;/font&gt;&lt;/div&gt;PETs" style="text;html=1;align=center;verticalAlign=middle;whiteSpace=wrap;rounded=0;" vertex="1" parent="1">
          <mxGeometry x="890" y="360" width="40" height="30" as="geometry" />
        </mxCell>
        <mxCell id="qRrsi4mGmzIIHp8oxD2m-93" value="" style="endArrow=none;html=1;rounded=0;entryX=0.124;entryY=0.007;entryDx=0;entryDy=0;entryPerimeter=0;" edge="1" parent="1">
          <mxGeometry width="50" height="50" relative="1" as="geometry">
            <mxPoint x="910" y="390" as="sourcePoint" />
            <mxPoint x="909.9200000000001" y="400.1399999999999" as="targetPoint" />
          </mxGeometry>
        </mxCell>
        <mxCell id="qRrsi4mGmzIIHp8oxD2m-94" value="&lt;div&gt;&lt;span style=&quot;background-color: transparent; color: light-dark(rgb(0, 0, 0), rgb(255, 255, 255));&quot;&gt;PETs&amp;nbsp;&lt;/span&gt;&lt;span style=&quot;background-color: transparent; color: light-dark(rgb(0, 0, 0), rgb(255, 255, 255)); font-size: 10px;&quot;&gt;2/4&lt;/span&gt;&lt;/div&gt;&lt;div&gt;&lt;span style=&quot;background-color: transparent; color: light-dark(rgb(0, 0, 0), rgb(255, 255, 255)); font-size: 10px;&quot;&gt;&lt;br&gt;&lt;/span&gt;&lt;/div&gt;" style="text;html=1;align=center;verticalAlign=middle;whiteSpace=wrap;rounded=0;" vertex="1" parent="1">
          <mxGeometry x="160" y="430" width="60" height="30" as="geometry" />
        </mxCell>
        <mxCell id="qRrsi4mGmzIIHp8oxD2m-98" value="&lt;div&gt;&lt;br&gt;&lt;/div&gt;PETs&amp;nbsp;&lt;span style=&quot;font-size: 10px;&quot;&gt;4/4&lt;/span&gt;" style="text;html=1;align=center;verticalAlign=middle;whiteSpace=wrap;rounded=0;" vertex="1" parent="1">
          <mxGeometry x="650" y="360" width="40" height="30" as="geometry" />
        </mxCell>
        <mxCell id="qRrsi4mGmzIIHp8oxD2m-99" value="" style="endArrow=none;html=1;rounded=0;entryX=0.124;entryY=0.007;entryDx=0;entryDy=0;entryPerimeter=0;" edge="1" parent="1">
          <mxGeometry width="50" height="50" relative="1" as="geometry">
            <mxPoint x="670" y="390" as="sourcePoint" />
            <mxPoint x="669.9200000000001" y="400.1399999999999" as="targetPoint" />
          </mxGeometry>
        </mxCell>
        <mxCell id="qRrsi4mGmzIIHp8oxD2m-126" value="" style="endArrow=none;html=1;rounded=0;exitX=0.75;exitY=1;exitDx=0;exitDy=0;entryX=0.5;entryY=0;entryDx=0;entryDy=0;" edge="1" parent="1">
          <mxGeometry width="50" height="50" relative="1" as="geometry">
            <mxPoint x="110" y="420" as="sourcePoint" />
            <mxPoint x="110" y="430" as="targetPoint" />
          </mxGeometry>
        </mxCell>
        <mxCell id="qRrsi4mGmzIIHp8oxD2m-131" value="" style="endArrow=none;html=1;rounded=0;entryX=0.626;entryY=0;entryDx=0;entryDy=0;entryPerimeter=0;exitX=0.5;exitY=1;exitDx=0;exitDy=0;" edge="1" parent="1">
          <mxGeometry width="50" height="50" relative="1" as="geometry">
            <mxPoint x="780" y="370" as="sourcePoint" />
            <mxPoint x="780" y="400" as="targetPoint" />
          </mxGeometry>
        </mxCell>
        <mxCell id="qRrsi4mGmzIIHp8oxD2m-133" value="&lt;div&gt;&lt;br&gt;&lt;/div&gt;FC" style="text;html=1;align=center;verticalAlign=middle;whiteSpace=wrap;rounded=0;" vertex="1" parent="1">
          <mxGeometry x="760" y="340" width="40" height="30" as="geometry" />
        </mxCell>
        <mxCell id="qRrsi4mGmzIIHp8oxD2m-134" value="" style="whiteSpace=wrap;html=1;aspect=fixed;resizeWidth=1;resizeHeight=1;dashed=1;dashPattern=8 8;" vertex="1" parent="1">
          <mxGeometry x="-40" y="400" width="80" height="20" as="geometry" />
        </mxCell>
        <mxCell id="qRrsi4mGmzIIHp8oxD2m-135" value="12" style="text;html=1;align=center;verticalAlign=middle;whiteSpace=wrap;rounded=0;dashed=1;dashPattern=8 8;" vertex="1" parent="1">
          <mxGeometry x="-40" y="400" width="80" height="20" as="geometry" />
        </mxCell>
      </root>
    </mxGraphModel>
  </diagram>
</mxfile>
